<?xml version="1.0" encoding="utf-8"?>
<!-- Uploaded to: SVG Repo, www.svgrepo.com, Generator: SVG Repo Mixer Tools -->
<svg width="800px" height="800px" viewBox="0 0 1024 1024" class="icon"  version="1.1" xmlns="http://www.w3.org/2000/svg"><path d="M836.8128 401.8688c-18.1248 18.0736-40.9088 29.7472-65.6384 33.792-6.5536 1.0752-13.2096 1.6384-19.968 1.6384-16.1792 0-31.8464-3.1232-46.336-9.1648-14.4896-5.9904-27.8016-14.848-39.2192-26.2656a22.34368 22.34368 0 0 0-31.6416 0 22.34368 22.34368 0 0 0 0 31.6416c30.6176 30.6176 71.2192 47.8208 114.4832 48.4864l-41.6768 369.8688h-64.4608v-193.3312c0-12.3392-9.984-22.3744-22.3744-22.3744-12.3392 0-22.3744 10.0352-22.3744 22.3744v193.3312h-62.3104v-331.264-0.0512c0-12.3392-10.0352-22.3232-22.3744-22.3232-12.3904 0-22.3744 10.0352-22.3744 22.3744v331.264H428.1856v-193.3312c0-12.3392-9.984-22.3744-22.3744-22.3744-12.3392 0-22.3744 10.0352-22.3744 22.3744v193.3312H319.2832l-41.8304-370.432a165.376 165.376 0 0 0 103.2704-47.9232 22.44096 22.44096 0 0 0 0-31.3344 22.34368 22.34368 0 0 0-31.6416-0.3072 121.13408 121.13408 0 0 1-94.2592 35.1232c-0.3072-0.0512-0.6656-0.1024-1.024-0.1024a121.02144 121.02144 0 0 1-75.8784-35.0208c-47.0016-47.1552-46.9504-123.904 0.1536-171.008 47.2064-47.1552 124.0064-47.1552 171.1616 0a22.34368 22.34368 0 0 0 31.3344 0c2.6112-2.56 4.4544-5.5808 5.5296-8.8064 1.4848-2.9696 2.304-6.2976 2.304-9.7792 0-66.7648 54.3232-121.0368 121.0368-121.0368 64.4608 0 117.4016 50.7904 120.832 114.6368a22.17984 22.17984 0 0 0 5.12 23.6032 22.34368 22.34368 0 0 0 31.6416 0l1.3824-1.3824c47.1552-45.6704 123.2896-45.056 169.7792 1.3824 22.8352 22.8352 35.4304 53.248 35.4304 85.6064 0 32.1536-12.4928 62.464-35.1232 85.248-0.1024 0.1024-0.2048 0.1536-0.3072 0.3072-0.4608 0.3584-0.9216 0.768-1.3824 1.2288z" fill="#FFFFFF" /><path d="M701.7984 896.6144l-3.8912 34.304H328.192l-3.8912-34.304h295.68z" fill="#FF4893" /><path d="M869.8368 197.8368c-53.7088-53.7088-136.448-62.6688-199.7824-26.4704-18.2272-71.68-83.4048-124.8768-160.6144-124.8768-45.6704 0-87.1424 18.5856-117.1456 48.5888A165.69856 165.69856 0 0 0 348.16 173.824c-63.5904-37.6832-147.0976-29.184-201.728 25.3952-64.512 64.5632-64.6144 169.6256-0.2048 234.24l0.256 0.256c23.552 23.5008 53.4528 39.168 85.6576 45.312l44.8512 397.2608c0 0.2048 0.0512 0.3584 0.0512 0.5632l8.9088 78.9504a22.3744 22.3744 0 0 0 22.2208 19.8656h409.7024c11.4176 0 20.992-8.5504 22.2208-19.8656l8.9088-79.0016 45.2096-400.384c7.0144-1.8432 13.824-4.1472 20.48-6.912 19.456-8.0384 37.376-19.8656 53.4528-35.6864l0.3072-0.3072c0.4608-0.3584 0.9216-0.768 1.3824-1.2288 31.2832-31.2832 48.5376-72.9088 48.5376-117.1968s-17.2032-85.9648-48.5376-117.248z m-171.9296 733.0816H328.192l-3.8912-34.304h377.4976l-3.8912 34.304z m140.5952-530.5856c-0.1024 0.1024-0.2048 0.1536-0.3072 0.3072-0.4608 0.3584-0.9216 0.768-1.3824 1.2288-18.1248 18.0736-40.9088 29.7472-65.6384 33.792-6.5536 1.0752-13.2096 1.6384-19.968 1.6384-16.1792 0-31.8464-3.1232-46.336-9.1648-14.4896-5.9904-27.8016-14.848-39.2192-26.2656a22.34368 22.34368 0 0 0-31.6416 0 22.34368 22.34368 0 0 0 0 31.6416c30.6176 30.6176 71.2192 47.8208 114.4832 48.4864l-41.6768 369.8688h-64.4608v-193.3312c0-12.3392-9.984-22.3744-22.3744-22.3744-12.3392 0-22.3744 10.0352-22.3744 22.3744v193.3312h-62.3104v-331.264-0.0512c0-12.3392-10.0352-22.3232-22.3744-22.3232-12.3904 0-22.3744 10.0352-22.3744 22.3744v331.264H428.1856v-193.3312c0-12.3392-9.984-22.3744-22.3744-22.3744-12.3392 0-22.3744 10.0352-22.3744 22.3744v193.3312H319.2832l-41.8304-370.432a165.376 165.376 0 0 0 103.2704-47.9232 22.44096 22.44096 0 0 0 0-31.3344 22.34368 22.34368 0 0 0-31.6416-0.3072 121.13408 121.13408 0 0 1-94.2592 35.1232c-0.3072-0.0512-0.6656-0.1024-1.024-0.1024a121.02144 121.02144 0 0 1-75.8784-35.0208c-47.0016-47.1552-46.9504-123.904 0.1536-171.008 47.2064-47.1552 124.0064-47.1552 171.1616 0a22.34368 22.34368 0 0 0 31.3344 0c2.6112-2.56 4.4544-5.5808 5.5296-8.8064 1.4848-2.9696 2.304-6.2976 2.304-9.7792 0-66.7648 54.3232-121.0368 121.0368-121.0368 64.4608 0 117.4016 50.7904 120.832 114.6368a22.17984 22.17984 0 0 0 5.12 23.6032 22.34368 22.34368 0 0 0 31.6416 0l1.3824-1.3824c47.1552-45.6704 123.2896-45.056 169.7792 1.3824 22.8352 22.8352 35.4304 53.248 35.4304 85.6064 0 32.1536-12.4928 62.464-35.1232 85.248z" fill="#4F46A3" /></svg>